<svg width="50" height="49" viewBox="0 0 50 49" fill="none" xmlns="http://www.w3.org/2000/svg">
<rect width="49.437" height="49" rx="10" fill="#FFE30B"/>
<g clip-path="url(#clip0_7477_681)">
<path d="M28.2516 17.2256C27.9518 16.9248 27.453 16.9248 27.1428 17.2256C26.8431 17.5162 26.8431 17.9999 27.1428 18.2899L32.7647 23.7413L14.2132 23.7413C13.7807 23.7419 13.437 24.0752 13.437 24.4946C13.437 24.9139 13.7807 25.2581 14.2132 25.2581L32.7647 25.2581L27.1428 30.6993C26.8431 31.0001 26.8431 31.4845 27.1428 31.7744C27.453 32.0752 27.9525 32.0752 28.2516 31.7744L35.2044 25.0325C35.5146 24.7418 35.5146 24.2582 35.2044 23.9682L28.2516 17.2256Z" fill="#333333"/>
</g>
<defs>
<clipPath id="clip0_7477_681">
<rect width="22" height="15" fill="white" transform="translate(13.437 17)"/>
</clipPath>
</defs>
</svg>
