<svg width="51" height="50" viewBox="0 0 51 50" fill="none" xmlns="http://www.w3.org/2000/svg">
<rect x="49.937" y="49.5" width="49.437" height="49" rx="10" transform="rotate(180 49.937 49.5)" fill="white" stroke="#F6F6F6"/>
<g clip-path="url(#clip0_7477_675)">
<path d="M21.6855 32.2744C21.9852 32.5752 22.484 32.5752 22.7942 32.2744C23.0939 31.9838 23.0939 31.5001 22.7942 31.2101L17.1723 25.7587L35.7238 25.7587C36.1563 25.7581 36.5 25.4248 36.5 25.0054C36.5 24.5861 36.1563 24.2419 35.7238 24.2419L17.1723 24.2419L22.7942 18.8007C23.0939 18.4999 23.0939 18.0155 22.7942 17.7256C22.484 17.4248 21.9845 17.4248 21.6855 17.7256L14.7326 24.4675C14.4225 24.7582 14.4225 25.2418 14.7326 25.5318L21.6855 32.2744Z" fill="#333333"/>
</g>
<defs>
<clipPath id="clip0_7477_675">
<rect width="22" height="15" fill="white" transform="matrix(-1 0 0 -1 36.5 32.5)"/>
</clipPath>
</defs>
</svg>
