<svg width="35" height="35" viewBox="0 0 35 35" fill="none" xmlns="http://www.w3.org/2000/svg">
<path fill-rule="evenodd" clip-rule="evenodd" d="M0 17.5C0 7.83502 7.83502 0 17.5 0C27.165 0 35 7.83502 35 17.5C35 27.165 27.165 35 17.5 35C7.83502 35 0 27.165 0 17.5Z" fill="#3B5998"/>
<rect width="35" height="35" rx="5" fill="#3B5998"/>
<path fill-rule="evenodd" clip-rule="evenodd" d="M19.3241 27.7896V18.2687H21.9523L22.3006 14.9877H19.3241L19.3286 13.3456C19.3286 12.4899 19.4099 12.0313 20.639 12.0313H22.282V8.75H19.6534C16.4961 8.75 15.3848 10.3416 15.3848 13.0182V14.9881H13.4167V18.2691H15.3848V27.7896H19.3241Z" fill="white"/>
</svg>
