<svg width="242" height="72" viewBox="0 0 242 72" fill="none" xmlns="http://www.w3.org/2000/svg">
<path d="M39.6162 0C21.5056 5.84433 6.22901 17.7587 0 35.5118C6.15786 53.0625 21.2911 65.1099 39.6162 71.0236C55.9113 59.0022 64.7971 49.348 71.3341 35.5118C61.9512 29.4841 58.0097 26.3809 50.4025 17.0533C40.2101 21.5826 31.3384 26.861 23.4794 35.3191C26.2997 39.163 30.9822 42.7512 34.7681 45.6991C40.2854 41.8195 44.4931 38.0393 47.2186 34.7958C48.9275 36.7939 50.8545 38.1233 52.6898 39.2347C47.949 46.9518 42.6288 51.1888 36.0589 55.2357C26.1909 50.237 18.2587 41.5848 14.4035 34.2691C21.6295 22.8694 32.9633 15.1722 45.8414 10.8827C43.7551 7.38612 41.0203 4.1299 39.6162 0Z" fill="#FFD001"/>
<path d="M95.6462 53.007C91.7113 53.007 88.4158 52.2498 85.7597 50.7353C83.1528 49.1721 81.1854 46.4852 79.8574 42.6747C78.5785 38.8154 77.9391 33.4661 77.9391 26.6268C77.9391 19.7875 78.5785 14.4626 79.8574 10.6521C81.1362 6.79278 82.9807 4.10591 85.3908 2.59149C87.801 1.02822 90.7276 0.246582 94.1706 0.246582C96.384 0.246582 98.499 0.393138 100.516 0.686251C102.581 0.979366 104.155 1.32133 105.238 1.71215V5.00967H95.6462C93.4328 5.00967 91.4899 5.62033 89.8176 6.84163C88.1945 8.06294 86.9156 10.2369 85.9811 13.3634C85.0465 16.4411 84.5793 20.8622 84.5793 26.6268C84.5793 32.3425 85.0465 36.7636 85.9811 39.8902C86.9648 43.0167 88.3912 45.1906 90.2603 46.4119C92.1294 47.6332 94.4165 48.2439 97.1218 48.2439H100.073V24.4284H106.713V51.5414C105.631 51.8834 104.057 52.2009 101.991 52.494C99.9746 52.836 97.8596 53.007 95.6462 53.007Z" fill="white"/>
<path d="M119.993 52.2742V0.979365H126.634V47.1447H145.079V52.2742H119.993Z" fill="white"/>
<path d="M152.451 52.6406V44.58H159.091V52.6406H152.451Z" fill="white"/>
<path d="M181.957 53.007C179.645 53.007 177.628 52.7139 175.907 52.1276C174.185 51.4926 172.857 50.3934 171.923 48.8301C170.988 47.218 170.521 44.9464 170.521 42.0152V15.635H177.161V42.0152C177.161 44.5555 177.825 46.2898 179.153 47.218C180.481 48.1462 182.154 48.6103 184.17 48.6103C185.105 48.6103 186.064 48.4637 187.048 48.1706C188.031 47.8286 188.794 47.4867 189.335 47.1447V15.635H195.975V52.2742H190.441L190.073 50.0758H189.704C188.769 51.004 187.613 51.7368 186.236 52.2742C184.859 52.7627 183.432 53.007 181.957 53.007Z" fill="white"/>
<path d="M218.818 53.007C216.604 53.007 214.662 52.6894 212.989 52.0544C211.366 51.4193 210.087 50.2712 209.153 48.6103C208.218 46.9004 207.751 44.4578 207.751 41.2824C207.751 38.2048 208.218 35.8598 209.153 34.2477C210.087 32.5868 211.366 31.4631 212.989 30.8769C214.662 30.2418 216.604 29.9243 218.818 29.9243C219.949 29.9243 221.179 29.9976 222.507 30.1441C223.884 30.2907 225.114 30.4617 226.196 30.6571V27.3596C226.196 24.0376 225.483 21.8637 224.056 20.8378C222.679 19.8119 220.687 19.2989 218.08 19.2989H210.702V16.3678C211.833 15.977 213.211 15.635 214.834 15.3419C216.506 15.0488 218.08 14.9022 219.556 14.9022C222.507 14.9022 224.966 15.2442 226.934 15.9281C228.901 16.5632 230.377 17.7845 231.36 19.5921C232.344 21.3507 232.836 23.9399 232.836 27.3596V52.2742H227.302L226.934 50.0758H226.565C225.63 51.004 224.474 51.7368 223.097 52.2742C221.72 52.7627 220.293 53.007 218.818 53.007ZM221.031 48.6103C221.966 48.6103 222.925 48.4637 223.909 48.1706C224.892 47.8286 225.655 47.4867 226.196 47.1447V34.321H221.031C219.802 34.321 218.67 34.5164 217.637 34.9072C216.654 35.298 215.867 36.0064 215.276 37.0323C214.686 38.0093 214.391 39.4261 214.391 41.2824C214.391 43.2365 214.686 44.7509 215.276 45.8257C215.867 46.8516 216.654 47.5844 217.637 48.024C218.67 48.4149 219.802 48.6103 221.031 48.6103Z" fill="white"/>
<path d="M77.9391 70.7768V62.1756H78.5838C78.6505 62.3787 78.7283 62.7251 78.7506 62.9999C79.2063 62.4384 79.8733 62.1039 80.6515 62.1039H80.7515C82.2744 62.1039 83.3416 63.3582 83.3416 65.1263V65.4369C83.3416 67.2049 82.2744 68.4593 80.7515 68.4593H80.6515C79.8733 68.4593 79.2175 68.1367 78.7617 67.5872V70.7768H77.9391ZM80.5736 67.5753H80.6626C81.7408 67.5753 82.4745 66.7032 82.4745 65.4369V65.1263C82.4745 63.86 81.7408 62.9879 80.6626 62.9879H80.5736C79.4842 62.9879 78.7617 63.8719 78.7617 65.1263V65.4369C78.7617 66.7032 79.4954 67.5753 80.5736 67.5753Z" fill="white"/>
<path d="M87.0234 68.4593C85.456 68.4593 84.3555 67.2049 84.3555 65.4369V65.1263C84.3555 63.3582 85.456 62.1039 87.0234 62.1039H87.1346C88.702 62.1039 89.8025 63.3582 89.8025 65.1263V65.4369C89.8025 67.2049 88.702 68.4593 87.1346 68.4593H87.0234ZM87.0345 67.5753H87.1235C88.2128 67.5753 88.9354 66.6912 88.9354 65.4369V65.1263C88.9354 63.86 88.2017 62.9879 87.1235 62.9879H87.0345C85.9562 62.9879 85.2226 63.86 85.2226 65.1263V65.4369C85.2226 66.6912 85.9451 67.5753 87.0345 67.5753Z" fill="white"/>
<path d="M92.8402 68.4593C91.9175 68.4593 91.0616 67.9934 90.5724 67.0496L91.2505 66.5957C91.5951 67.2288 92.0843 67.5991 92.8735 67.5991H92.9847C93.7295 67.5991 94.2186 67.2288 94.2186 66.6673V66.5718C94.2186 65.9506 93.8184 65.628 93.0736 65.628H92.1843V64.8157H93.0958C93.6294 64.8157 93.9851 64.4692 93.9851 63.9556V63.8361C93.9851 63.3224 93.5738 62.976 92.9624 62.976H92.8735C92.1509 62.976 91.6729 63.3344 91.4062 63.9675L90.6836 63.5136C91.106 62.6176 91.8842 62.1039 92.8735 62.1039H92.9847C94.0741 62.1039 94.8411 62.7729 94.8411 63.7286V63.8839C94.8411 64.3856 94.6076 64.8037 94.1852 65.1263C94.7633 65.4488 95.0856 65.9386 95.0856 66.5718V66.7151C95.0856 67.7544 94.2297 68.4593 92.9513 68.4593H92.8402Z" fill="white"/>
<path d="M96.4155 70.7768V62.1756H97.0602C97.1269 62.3787 97.2048 62.7251 97.227 62.9999C97.6828 62.4384 98.3497 62.1039 99.1279 62.1039H99.2279C100.751 62.1039 101.818 63.3582 101.818 65.1263V65.4369C101.818 67.2049 100.751 68.4593 99.2279 68.4593H99.1279C98.3497 68.4593 97.6939 68.1367 97.2381 67.5872V70.7768H96.4155ZM99.0501 67.5753H99.139C100.217 67.5753 100.951 66.7032 100.951 65.4369V65.1263C100.951 63.86 100.217 62.9879 99.139 62.9879H99.0501C97.9607 62.9879 97.2381 63.8719 97.2381 65.1263V65.4369C97.2381 66.7032 97.9718 67.5753 99.0501 67.5753Z" fill="white"/>
<path d="M105.5 68.4593C103.932 68.4593 102.832 67.2049 102.832 65.4369V65.1263C102.832 63.3582 103.932 62.1039 105.5 62.1039H105.611C107.178 62.1039 108.279 63.3582 108.279 65.1263V65.4369C108.279 67.2049 107.178 68.4593 105.611 68.4593H105.5ZM105.511 67.5753H105.6C106.689 67.5753 107.412 66.6912 107.412 65.4369V65.1263C107.412 63.86 106.678 62.9879 105.6 62.9879H105.511C104.433 62.9879 103.699 63.86 103.699 65.1263V65.4369C103.699 66.6912 104.422 67.5753 105.511 67.5753Z" fill="white"/>
<path d="M112.137 68.4593C110.28 68.4593 109.302 67.0377 109.302 64.2901C109.302 61.5663 110.258 60.2642 111.903 59.87C112.804 59.6549 113.848 59.5833 114.304 59.5833V60.527C113.637 60.527 112.815 60.6106 112.103 60.7659C110.858 61.0526 110.147 61.8052 110.013 63.6927C110.414 62.7968 111.169 62.1158 112.181 62.1158H112.248C113.815 62.1158 114.849 63.3821 114.849 65.1382V65.4369C114.849 67.193 113.693 68.4593 112.192 68.4593H112.137ZM112.125 67.5753H112.17C113.215 67.5753 113.982 66.6673 113.982 65.413V65.1143C113.982 63.86 113.282 62.9521 112.192 62.9521H112.17C111.081 62.9521 110.314 63.9197 110.314 65.1741V65.413C110.314 66.6673 111.081 67.5753 112.125 67.5753Z" fill="white"/>
<path d="M116.303 68.3876V62.1756H117.126V64.8874H117.17L119.727 62.1756H120.772L118.026 65.0785L120.939 68.3876H119.816L117.181 65.3174H117.126V68.3876H116.303Z" fill="white"/>
<path d="M123.318 68.4832C122.196 68.4832 121.417 67.7544 121.417 66.6435V66.5598C121.417 65.2219 122.507 64.5648 124.73 64.5648H125.264V64.1348C125.264 63.406 124.786 62.964 123.963 62.964H123.896C123.285 62.964 122.607 63.2149 122.118 63.633L121.706 62.9043C122.407 62.3906 123.14 62.0681 123.952 62.0681H124.019C125.308 62.0681 126.086 62.8446 126.086 64.0631V67.3722C126.086 67.7067 126.186 68.1248 126.286 68.3876H125.442C125.375 68.2084 125.319 67.8859 125.286 67.623C124.697 68.1845 124.019 68.4832 123.318 68.4832ZM123.363 67.5991C124.141 67.5991 124.808 67.2169 125.264 66.6315V65.3891H124.897C123.029 65.3891 122.262 65.7236 122.262 66.5479V66.6076C122.262 67.2169 122.707 67.5991 123.363 67.5991Z" fill="white"/>
<path d="M132.157 68.3876V63.0118H130.323V62.1756H134.814V63.0118H132.979V68.3876H132.157Z" fill="white"/>
<path d="M137.474 68.4832C136.351 68.4832 135.573 67.7544 135.573 66.6435V66.5598C135.573 65.2219 136.663 64.5648 138.886 64.5648H139.419V64.1348C139.419 63.406 138.941 62.964 138.119 62.964H138.052C137.441 62.964 136.763 63.2149 136.274 63.633L135.862 62.9043C136.563 62.3906 137.296 62.0681 138.108 62.0681H138.174C139.464 62.0681 140.242 62.8446 140.242 64.0631V67.3722C140.242 67.7067 140.342 68.1248 140.442 68.3876H139.597C139.531 68.2084 139.475 67.8859 139.442 67.623C138.853 68.1845 138.174 68.4832 137.474 68.4832ZM137.519 67.5991C138.297 67.5991 138.964 67.2169 139.419 66.6315V65.3891H139.053C137.185 65.3891 136.418 65.7236 136.418 66.5479V66.6076C136.418 67.2169 136.863 67.5991 137.519 67.5991Z" fill="white"/>
<path d="M145.201 68.3876V62.1756H149.992V68.3876H149.17V63.0118H146.024V68.3876H145.201Z" fill="white"/>
<path d="M152.289 60.969C151.977 60.969 151.744 60.7181 151.744 60.3836C151.744 60.0492 151.977 59.7863 152.289 59.7863C152.6 59.7863 152.833 60.0492 152.833 60.3836C152.833 60.7181 152.6 60.969 152.289 60.969ZM151.877 68.3876V62.1756H152.7V68.3876H151.877Z" fill="white"/>
<path d="M153.813 69.9167V67.5514H154.247C154.747 67.2647 154.991 65.5563 154.991 62.1756H158.849V67.5514H159.605V69.9167H158.804V68.3876H154.613V69.9167H153.813ZM155.158 67.5514H158.026V63.0118H155.792C155.758 65.8431 155.514 67.2885 155.158 67.5514Z" fill="white"/>
<path d="M161.999 68.3876V63.0118H160.165V62.1756H164.656V63.0118H162.822V68.3876H161.999Z" fill="white"/>
<path d="M165.827 70.7768V62.1756H166.472C166.538 62.3787 166.616 62.7251 166.638 62.9999C167.094 62.4384 167.761 62.1039 168.539 62.1039H168.639C170.162 62.1039 171.229 63.3582 171.229 65.1263V65.4369C171.229 67.2049 170.162 68.4593 168.639 68.4593H168.539C167.761 68.4593 167.105 68.1367 166.65 67.5872V70.7768H165.827ZM168.461 67.5753H168.55C169.629 67.5753 170.362 66.7032 170.362 65.4369V65.1263C170.362 63.86 169.629 62.9879 168.55 62.9879H168.461C167.372 62.9879 166.65 63.8719 166.65 65.1263V65.4369C166.65 66.7032 167.383 67.5753 168.461 67.5753Z" fill="white"/>
<path d="M172.677 68.3876V62.1756H173.499V66.8226H173.611L176.679 62.1756H177.524V68.3876H176.701V63.6808H176.59L173.477 68.3876H172.677Z" fill="white"/>
<path d="M179.418 68.3876V62.1756H180.252L182.253 66.309H182.364L184.365 62.1756H185.199V68.3876H184.376V64.0511H184.265L182.709 67.3124H181.908L180.352 64.0631H180.241V68.3876H179.418Z" fill="white"/>
<path d="M187.093 68.3876V62.1756H187.916V64.8874H187.96L190.517 62.1756H191.562L188.816 65.0785L191.729 68.3876H190.606L187.971 65.3174H187.916V68.3876H187.093Z" fill="white"/>
<path d="M194.108 68.4832C192.986 68.4832 192.208 67.7544 192.208 66.6435V66.5598C192.208 65.2219 193.297 64.5648 195.52 64.5648H196.054V64.1348C196.054 63.406 195.576 62.964 194.753 62.964H194.686C194.075 62.964 193.397 63.2149 192.908 63.633L192.497 62.9043C193.197 62.3906 193.931 62.0681 194.742 62.0681H194.809C196.098 62.0681 196.876 62.8446 196.876 64.0631V67.3722C196.876 67.7067 196.976 68.1248 197.076 68.3876H196.232C196.165 68.2084 196.109 67.8859 196.076 67.623C195.487 68.1845 194.809 68.4832 194.108 68.4832ZM194.153 67.5991C194.931 67.5991 195.598 67.2169 196.054 66.6315V65.3891H195.687C193.819 65.3891 193.052 65.7236 193.052 66.5479V66.6076C193.052 67.2169 193.497 67.5991 194.153 67.5991Z" fill="white"/>
<path d="M204.125 68.4593C202.502 68.4593 201.402 67.2288 201.402 65.4369V65.1263C201.402 63.3344 202.525 62.1039 204.103 62.1039H204.192C205.181 62.1039 206.048 62.6773 206.526 63.6689L205.859 64.0631C205.526 63.3582 204.926 62.976 204.181 62.976H204.07C202.98 62.976 202.269 63.8361 202.269 65.1263V65.4369C202.269 66.7271 203.014 67.5872 204.136 67.5872H204.248C204.926 67.5872 205.493 67.2169 205.848 66.5359L206.537 66.9302C206.015 67.9097 205.181 68.4593 204.214 68.4593H204.125Z" fill="white"/>
<path d="M209.339 68.4832C208.216 68.4832 207.438 67.7544 207.438 66.6435V66.5598C207.438 65.2219 208.527 64.5648 210.751 64.5648H211.284V64.1348C211.284 63.406 210.806 62.964 209.984 62.964H209.917C209.306 62.964 208.628 63.2149 208.138 63.633L207.727 62.9043C208.427 62.3906 209.161 62.0681 209.973 62.0681H210.039C211.329 62.0681 212.107 62.8446 212.107 64.0631V67.3722C212.107 67.7067 212.207 68.1248 212.307 68.3876H211.462C211.395 68.2084 211.34 67.8859 211.307 67.623C210.717 68.1845 210.039 68.4832 209.339 68.4832ZM209.383 67.5991C210.162 67.5991 210.829 67.2169 211.284 66.6315V65.3891H210.917C209.05 65.3891 208.283 65.7236 208.283 66.5479V66.6076C208.283 67.2169 208.728 67.5991 209.383 67.5991Z" fill="white"/>
<path d="M214.695 59.7863H215.495C215.495 60.3478 215.851 60.7181 216.385 60.7181C216.918 60.7181 217.263 60.3478 217.263 59.7863H218.063C218.063 60.7779 217.407 61.4349 216.385 61.4349C215.362 61.4349 214.695 60.7779 214.695 59.7863ZM213.95 68.3876V62.1756H214.773V66.8226H214.884L217.952 62.1756H218.797V68.3876H217.974V63.6808H217.863L214.751 68.3876H213.95Z" fill="white"/>
<path d="M221.803 68.3876V63.0118H219.969V62.1756H224.46V63.0118H222.626V68.3876H221.803Z" fill="white"/>
<path d="M226.042 60.969C225.731 60.969 225.498 60.7181 225.498 60.3836C225.498 60.0492 225.731 59.7863 226.042 59.7863C226.354 59.7863 226.587 60.0492 226.587 60.3836C226.587 60.7181 226.354 60.969 226.042 60.969ZM225.631 68.3876V62.1756H226.454V68.3876H225.631Z" fill="white"/>
<path d="M228.345 68.3876V62.1756H230.791C231.847 62.1756 232.547 62.8087 232.547 63.7644V63.9317C232.547 64.4454 232.313 64.8635 231.936 65.1502C232.502 65.413 232.836 65.9267 232.836 66.524V66.6793C232.836 67.7067 232.047 68.3876 230.891 68.3876H228.345ZM229.168 64.8157H230.802C231.335 64.8157 231.691 64.4692 231.691 63.9436V63.8839C231.691 63.3582 231.346 63.0118 230.813 63.0118H229.168V64.8157ZM229.168 67.5514H230.946C231.546 67.5514 231.969 67.181 231.969 66.6435V66.5359C231.969 65.9864 231.569 65.628 230.946 65.628H229.168V67.5514Z" fill="white"/>
</svg>
