<svg width="22" height="22" viewBox="0 0 22 22" fill="none" xmlns="http://www.w3.org/2000/svg">
<path d="M5.94434 0.5H16.0557C19.0571 0.500002 21.5 2.94314 21.5 5.94531V16.0586C21.4999 19.0607 19.0571 21.5039 16.0557 21.5039H5.94434C2.94294 21.5039 0.500127 19.0607 0.5 16.0586V5.94531C0.500014 2.94314 2.94287 0.500002 5.94434 0.5ZM5.94434 1.27734C3.37041 1.27735 1.27736 3.37121 1.27734 5.94531V16.0586C1.27747 18.6326 3.37053 20.7256 5.94434 20.7256H16.0557C18.6295 20.7256 20.7225 18.6326 20.7227 16.0586V5.94531C20.7226 3.37116 18.6295 1.27735 16.0557 1.27734H5.94434Z" fill="white" stroke="white"/>
<path d="M10.3936 6.57227C10.825 6.5083 11.2628 6.50828 11.6943 6.57227C12.6427 6.71297 13.5007 7.14511 14.1787 7.82324C14.8566 8.50133 15.288 9.3591 15.4287 10.3076C15.6026 11.48 15.3103 12.6477 14.6045 13.5996C13.8986 14.5515 12.8665 15.1707 11.6943 15.3447H11.6934C11.4725 15.3775 11.2519 15.3936 11.0332 15.3936C10.0904 15.3936 9.17571 15.0932 8.40234 14.5195C7.4508 13.8135 6.83213 12.7816 6.6582 11.6094C6.48434 10.4369 6.77741 9.26942 7.4834 8.31738C8.18941 7.36536 9.22125 6.74615 10.3936 6.57227ZM11.0439 7.30176C10.8649 7.30176 10.6855 7.31546 10.5078 7.3418C9.54281 7.48494 8.68862 7.99666 8.10742 8.78027C7.52626 9.56396 7.28462 10.53 7.42773 11.4951C7.57085 12.46 8.08183 13.3143 8.86523 13.8955C9.64875 14.4767 10.6149 14.7186 11.5801 14.5752C13.5745 14.2793 14.9559 12.4164 14.6602 10.4219C14.4224 8.81909 13.1827 7.57957 11.5801 7.3418C11.4023 7.31537 11.223 7.30178 11.0439 7.30176Z" fill="white" stroke="white"/>
<path d="M16.561 5.05054C16.6623 5.05054 16.7647 5.09305 16.8364 5.16479C16.9078 5.23644 16.9497 5.33813 16.9497 5.43921C16.9497 5.51504 16.9263 5.5914 16.8843 5.65503L16.8354 5.7146C16.7638 5.78601 16.6621 5.82788 16.561 5.82788C16.4598 5.82787 16.3584 5.78535 16.2866 5.71362H16.2856C16.2142 5.64181 16.1724 5.54044 16.1724 5.43921C16.1724 5.33774 16.2148 5.23662 16.2866 5.16479C16.3583 5.0931 16.4598 5.05055 16.561 5.05054Z" fill="white" stroke="white"/>
</svg>
