<svg width="22" height="18" viewBox="0 0 22 18" fill="none" xmlns="http://www.w3.org/2000/svg">
<path d="M15.4316 0.510742C16.452 0.580754 17.3932 0.97824 18.1367 1.64062L18.3594 1.83887L18.6387 1.73828C19.4353 1.45174 20.1892 1.06343 20.8848 0.580078C21.0183 0.487289 21.1978 0.485451 21.333 0.576172C21.4667 0.665874 21.5258 0.823891 21.4893 0.97168C21.1945 2.16384 20.6036 3.26054 19.7705 4.16797L19.6201 4.33203L19.6416 4.55371C19.6545 4.68836 19.6607 4.82374 19.6611 4.95801C19.661 7.44005 19.1084 9.66237 18.0312 11.5771C17.031 13.3551 15.5687 14.8367 13.8027 15.8604C11.9545 16.9315 9.79532 17.5 7.55469 17.5C7.53691 17.5 7.51872 17.5001 7.50098 17.5C5.33276 17.4912 3.12874 16.9451 1.10059 15.9131L0.697266 15.7002C0.539326 15.6137 0.467714 15.4366 0.513672 15.2744C0.560313 15.1106 0.718727 14.991 0.904297 14.998C2.51525 15.0612 4.13269 14.7416 5.5957 14.0859L6.51562 13.6738L5.63086 13.1914C1.95415 11.1848 0.925585 8.19064 0.731445 5.89551C0.497305 3.12687 1.4137 0.828393 1.44629 0.748047V0.74707C1.48361 0.655474 1.557 0.581002 1.65039 0.541016L1.75 0.513672C1.89015 0.493173 2.02888 0.548213 2.11426 0.65332C3.76836 2.69009 6.19635 5.10879 10.0674 5.44922L10.6133 5.49707L10.6113 4.94922C10.6064 3.66209 11.1679 2.43857 12.1572 1.59082C13.0658 0.812122 14.2271 0.428208 15.4316 0.510742ZM18.8838 4.95801C18.883 4.73188 18.861 4.50202 18.8174 4.27734C18.7941 4.15733 18.8326 4.03196 18.9238 3.94336C19.1735 3.70082 19.4026 3.44058 19.6094 3.16504L20.6348 1.79785L19.0342 2.39648C18.8058 2.48185 18.5738 2.55922 18.3389 2.62891C18.1895 2.67331 18.0292 2.62623 17.9297 2.51367C17.2757 1.77304 16.3664 1.32764 15.376 1.25977C14.3854 1.19191 13.4238 1.50882 12.6729 2.15234C11.902 2.8129 11.4412 3.75296 11.3926 4.75586L11.3887 4.9541V5.86523C11.3886 6.06555 11.2217 6.24021 11 6.24023C8.87366 6.24023 6.91004 5.66709 5.1543 4.53613C4.13517 3.87965 3.27489 3.09138 2.57812 2.35254L1.91992 1.65527L1.72461 2.59375C1.54354 3.46301 1.39605 4.63175 1.51074 5.89453C1.66523 7.59446 2.24758 9.07621 3.25879 10.3125C4.26733 11.5454 5.68292 12.5107 7.46973 13.2148C7.60493 13.2681 7.69504 13.388 7.70996 13.5225C7.72472 13.6567 7.66288 13.7916 7.54395 13.8711C6.56761 14.5239 5.49744 15.0174 4.3623 15.3369H4.36133C4.3315 15.3453 4.30179 15.3534 4.27246 15.3613L2.46875 15.8516L4.27637 16.3271C7.42562 17.157 10.6762 16.7966 13.4033 15.2158C16.9038 13.1867 18.8837 9.4275 18.8838 4.95996V4.95801Z" fill="white" stroke="white"/>
</svg>
