<svg width="206" height="33" viewBox="0 0 206 33" fill="none" xmlns="http://www.w3.org/2000/svg">
<path d="M14.5885 17.2307V32.692H10.9073V26.3529H3.68122V32.692H0V17.2307H3.68122V23.3269H10.9073V17.2307H14.5885Z" fill="white"/>
<path d="M31.8043 29.8206V32.692H19.4881V17.2307H31.5089V20.1021H23.1466V23.4594H30.5318V26.2425H23.1466V29.8206H31.8043Z" fill="white"/>
<path d="M35.8695 17.2307H39.5507V29.7765H47.5267V32.692H35.8695V17.2307Z" fill="white"/>
<path d="M57.605 17.2307C59.0139 17.2307 60.2333 17.459 61.2635 17.9155C62.3088 18.3719 63.1117 19.0198 63.6722 19.8592C64.2327 20.6985 64.513 21.6924 64.513 22.841C64.513 23.9748 64.2327 24.9687 63.6722 25.8228C63.1117 26.6621 62.3088 27.31 61.2635 27.7665C60.2333 28.2083 59.0139 28.4291 57.605 28.4291H54.401V32.692H50.7197V17.2307H57.605ZM57.4005 25.5136C58.5064 25.5136 59.3471 25.2853 59.9228 24.8289C60.4985 24.3577 60.7863 23.695 60.7863 22.841C60.7863 21.9722 60.4985 21.3096 59.9228 20.8531C59.3471 20.3819 58.5064 20.1463 57.4005 20.1463H54.401V25.5136H57.4005Z" fill="white"/>
<path d="M68.2773 17.2307H75.5034C77.2303 17.2307 78.7528 17.5547 80.0708 18.2026C81.4039 18.8358 82.4341 19.734 83.1612 20.8973C83.9035 22.0606 84.2747 23.4153 84.2747 24.9614C84.2747 26.5075 83.9035 27.8622 83.1612 29.0255C82.4341 30.1888 81.4039 31.0944 80.0708 31.7423C78.7528 32.3754 77.2303 32.692 75.5034 32.692H68.2773V17.2307ZM75.3216 29.7544C76.9122 29.7544 78.1772 29.3274 79.1164 28.4733C80.0708 27.6045 80.548 26.4339 80.548 24.9614C80.548 23.4889 80.0708 22.3256 79.1164 21.4716C78.1772 20.6028 76.9122 20.1684 75.3216 20.1684H71.9585V29.7544H75.3216Z" fill="white"/>
<path d="M100.503 29.8206V32.692H88.187V17.2307H100.208V20.1021H91.8455V23.4594H99.2307V26.2425H91.8455V29.8206H100.503Z" fill="white"/>
<path d="M109.795 32.9571C108.537 32.9571 107.318 32.7951 106.136 32.4711C104.97 32.1325 104.031 31.6981 103.319 31.168L104.568 28.4733C105.25 28.9592 106.061 29.3494 107 29.6439C107.939 29.9384 108.878 30.0857 109.818 30.0857C110.863 30.0857 111.635 29.9384 112.135 29.6439C112.635 29.3347 112.885 28.9298 112.885 28.4291C112.885 28.061 112.734 27.7591 112.431 27.5235C112.143 27.2732 111.764 27.0744 111.295 26.9272C110.84 26.7799 110.219 26.618 109.431 26.4413C108.219 26.1615 107.227 25.8817 106.454 25.6019C105.682 25.3221 105.015 24.873 104.455 24.2546C103.909 23.6361 103.637 22.8115 103.637 21.7808C103.637 20.8826 103.887 20.0727 104.387 19.3512C104.887 18.6149 105.636 18.0333 106.636 17.6062C107.651 17.1792 108.886 16.9657 110.34 16.9657C111.355 16.9657 112.347 17.0835 113.317 17.3191C114.287 17.5547 115.135 17.8934 115.862 18.3351L114.726 21.0519C113.256 20.242 111.787 19.8371 110.317 19.8371C109.287 19.8371 108.522 19.9991 108.022 20.323C107.538 20.647 107.295 21.074 107.295 21.6041C107.295 22.1342 107.576 22.5318 108.136 22.7968C108.712 23.0471 109.583 23.2975 110.749 23.5478C111.961 23.8276 112.953 24.1073 113.726 24.3871C114.499 24.6669 115.158 25.1086 115.703 25.7124C116.263 26.3161 116.544 27.1333 116.544 28.1641C116.544 29.0476 116.286 29.8575 115.771 30.5937C115.271 31.3152 114.514 31.8895 113.499 32.3165C112.484 32.7436 111.249 32.9571 109.795 32.9571Z" fill="white"/>
<path d="M125.99 26.618L123.854 28.7825V32.692H120.195V17.2307H123.854V24.4534L130.898 17.2307H134.988L128.399 24.1221L135.375 32.692H131.08L125.99 26.618Z" fill="white"/>
<path d="M147.545 33C146.257 33 145.008 32.8454 143.796 32.5362C142.584 32.227 141.599 31.8147 140.842 31.2993L142.319 28.0745C143.031 28.531 143.856 28.8991 144.795 29.1789C145.735 29.4586 146.659 29.5985 147.568 29.5985C149.295 29.5985 150.158 29.1789 150.158 28.3395C150.158 27.8978 149.908 27.5738 149.408 27.3677C148.924 27.1468 148.136 26.9186 147.045 26.683C145.848 26.4327 144.848 26.1676 144.046 25.8878C143.243 25.5933 142.553 25.1295 141.978 24.4963C141.402 23.8631 141.114 23.0091 141.114 21.9342C141.114 20.9918 141.379 20.1451 141.91 19.3941C142.44 18.6284 143.228 18.0247 144.273 17.5829C145.333 17.1412 146.628 16.9203 148.159 16.9203C149.204 16.9203 150.234 17.0381 151.249 17.2737C152.264 17.4946 153.158 17.8259 153.93 18.2676L152.544 21.5145C151.029 20.7193 149.56 20.3218 148.136 20.3218C147.242 20.3218 146.591 20.4543 146.182 20.7193C145.773 20.9697 145.568 21.301 145.568 21.7133C145.568 22.1256 145.81 22.4348 146.295 22.641C146.78 22.8471 147.56 23.0606 148.636 23.2815C149.848 23.5318 150.848 23.8042 151.635 24.0987C152.438 24.3785 153.127 24.835 153.703 25.4682C154.294 26.0866 154.589 26.9333 154.589 28.0082C154.589 28.9359 154.324 29.7752 153.794 30.5262C153.264 31.2772 152.468 31.8809 151.408 32.3374C150.348 32.7791 149.06 33 147.545 33Z" fill="white"/>
<path d="M160.968 20.6973H156.082V17.2295H170.33V20.6973H165.467V32.6908H160.968V20.6973Z" fill="white"/>
<path d="M183.001 29.6869H176.275L175.025 32.6908H170.435L177.456 17.2295H181.887L188.932 32.6908H184.251L183.001 29.6869ZM181.683 26.4621L179.638 21.5145L177.593 26.4621H181.683Z" fill="white"/>
<path d="M198.297 28.5825H195.843V32.6908H191.343V17.2295H198.615C200.054 17.2295 201.304 17.4651 202.364 17.9363C203.425 18.3928 204.243 19.0554 204.818 19.9242C205.394 20.7782 205.682 21.7869 205.682 22.9502C205.682 24.0693 205.409 25.0485 204.864 25.8878C204.334 26.7124 203.569 27.3603 202.569 27.8315L206 32.6908H201.183L198.297 28.5825ZM201.137 22.9502C201.137 22.2287 200.902 21.6691 200.433 21.2715C199.963 20.874 199.266 20.6752 198.342 20.6752H195.843V25.2031H198.342C199.266 25.2031 199.963 25.0117 200.433 24.6288C200.902 24.2313 201.137 23.6717 201.137 22.9502Z" fill="white"/>
<path d="M106.272 8.88989C106.272 10.2905 105.118 11.4298 103.7 11.4298C105.118 11.4298 106.272 12.5691 106.272 13.9696C106.272 12.5691 107.425 11.4298 108.844 11.4298C107.425 11.437 106.272 10.2977 106.272 8.88989Z" fill="white"/>
<path d="M119.988 10.1593C117.86 10.1593 116.131 8.45671 116.131 6.34949C116.131 8.45145 114.406 10.1593 112.273 10.1593C114.401 10.1593 116.131 11.8619 116.131 13.9691C116.136 11.8619 117.86 10.1593 119.988 10.1593Z" fill="white"/>
<path d="M129.208 0C129.208 3.50785 126.423 6.34667 122.99 6.34667C126.423 6.34667 129.208 9.19152 129.208 12.6994C129.208 9.19152 131.993 6.34667 135.42 6.34667C131.993 6.34667 129.208 3.50785 129.208 0Z" fill="white"/>
</svg>
