<svg width="35" height="35" viewBox="0 0 35 35" fill="none" xmlns="http://www.w3.org/2000/svg">
<path fill-rule="evenodd" clip-rule="evenodd" d="M0 17.5C0 7.83502 7.83502 0 17.5 0C27.165 0 35 7.83502 35 17.5C35 27.165 27.165 35 17.5 35C7.83502 35 0 27.165 0 17.5Z" fill="url(#paint0_linear_7477_139)"/>
<rect width="35" height="35" rx="5" fill="url(#paint1_linear_7477_139)"/>
<path fill-rule="evenodd" clip-rule="evenodd" d="M12.7079 17.5001C12.7079 14.8531 14.8541 12.7069 17.5011 12.7069C20.148 12.7071 22.2934 14.8531 22.2934 17.5001C22.2934 20.1471 20.1481 22.2922 17.5011 22.2922C14.8541 22.2922 12.7079 20.1471 12.7079 17.5001ZM20.6122 17.5003C20.6122 15.782 19.2191 14.3892 17.501 14.3892C15.7827 14.3892 14.3899 15.782 14.3899 17.5003C14.3899 19.2184 15.7827 20.6114 17.501 20.6114C19.2191 20.6114 20.6122 19.2184 20.6122 17.5003Z" fill="white"/>
<path d="M21.3631 12.5182C21.3631 11.8996 21.8648 11.3985 22.4831 11.3985C23.1014 11.3985 23.6031 11.8998 23.6031 12.5182C23.6031 13.1365 23.1014 13.6382 22.4831 13.6382C21.8648 13.6382 21.3631 13.1365 21.3631 12.5182Z" fill="white"/>
<path fill-rule="evenodd" clip-rule="evenodd" d="M13.6525 8.22314C14.648 8.17783 14.9662 8.16675 17.501 8.16675H17.498C20.0336 8.16675 20.3506 8.17783 21.3461 8.22314C22.3398 8.26864 23.0184 8.42595 23.6134 8.65675C24.2278 8.89495 24.747 9.21384 25.2662 9.73301C25.7853 10.2518 26.1042 10.7725 26.3434 11.3864C26.5729 11.9798 26.7304 12.6581 26.777 13.6517C26.8217 14.6473 26.8334 14.9654 26.8334 17.5002C26.8334 20.035 26.8217 20.3523 26.777 21.3479C26.7304 22.3411 26.5729 23.0195 26.3434 23.6132C26.1042 24.2269 25.7853 24.7476 25.2662 25.2664C24.7476 25.7855 24.2276 26.1052 23.614 26.3436C23.0201 26.5744 22.3411 26.7317 21.3475 26.7772C20.3519 26.8225 20.0348 26.8336 17.4998 26.8336C14.9652 26.8336 14.6473 26.8225 13.6517 26.7772C12.6583 26.7317 11.9798 26.5744 11.386 26.3436C10.7725 26.1052 10.2518 25.7855 9.73321 25.2664C9.21423 24.7476 8.89534 24.2269 8.65675 23.613C8.42614 23.0195 8.26883 22.3413 8.22314 21.3477C8.17803 20.3521 8.16675 20.035 8.16675 17.5002C8.16675 14.9654 8.17841 14.6471 8.22294 13.6515C8.26767 12.6583 8.42517 11.9798 8.65656 11.3862C8.89573 10.7725 9.21462 10.2518 9.73379 9.73301C10.2526 9.21404 10.7733 8.89514 11.3872 8.65675C11.9806 8.42595 12.6589 8.26864 13.6525 8.22314ZM17.1899 9.84864C17.0012 9.84855 16.8263 9.84847 16.6637 9.84873V9.84639C14.9242 9.84834 14.5905 9.86001 13.7295 9.8989C12.8195 9.9407 12.3254 10.0924 11.9964 10.2207C11.5609 10.3903 11.2497 10.5925 10.9231 10.9192C10.5964 11.2458 10.3938 11.5569 10.2246 11.9925C10.0969 12.3215 9.94481 12.8154 9.9032 13.7254C9.85847 14.7093 9.84953 15.0033 9.84953 17.4957C9.84953 19.9881 9.85847 20.2837 9.9032 21.2676C9.94461 22.1776 10.0969 22.6715 10.2246 23.0001C10.3942 23.4359 10.5964 23.7462 10.9231 24.0729C11.2497 24.3995 11.5609 24.6018 11.9964 24.7709C12.3256 24.8987 12.8195 25.0507 13.7295 25.0927C14.7134 25.1375 15.0088 25.1472 17.501 25.1472C19.993 25.1472 20.2886 25.1375 21.2725 25.0927C22.1825 25.0511 22.6768 24.8995 23.0054 24.7711C23.4411 24.602 23.7513 24.3997 24.078 24.0731C24.4046 23.7466 24.6072 23.4365 24.7764 23.0009C24.9042 22.6723 25.0562 22.1784 25.0978 21.2684C25.1425 20.2845 25.1523 19.9889 25.1523 17.4981C25.1523 15.0072 25.1425 14.7116 25.0978 13.7277C25.0564 12.8177 24.9042 12.3238 24.7764 11.9952C24.6068 11.5597 24.4046 11.2485 24.078 10.9219C23.7515 10.5952 23.4409 10.393 23.0054 10.2238C22.6764 10.0961 22.1825 9.94401 21.2725 9.9024C20.2884 9.85767 19.993 9.84873 17.501 9.84873L17.1899 9.84864Z" fill="white"/>
<defs>
<linearGradient id="paint0_linear_7477_139" x1="29.4014" y1="35" x2="6.53485" y2="6.28319e-07" gradientUnits="userSpaceOnUse">
<stop stop-color="#E09B3D"/>
<stop offset="0.3" stop-color="#C74C4D"/>
<stop offset="0.6" stop-color="#C21975"/>
<stop offset="1" stop-color="#7024C4"/>
</linearGradient>
<linearGradient id="paint1_linear_7477_139" x1="29.4014" y1="35" x2="6.53485" y2="6.28319e-07" gradientUnits="userSpaceOnUse">
<stop stop-color="#E09B3D"/>
<stop offset="0.3" stop-color="#C74C4D"/>
<stop offset="0.6" stop-color="#C21975"/>
<stop offset="1" stop-color="#7024C4"/>
</linearGradient>
</defs>
</svg>
