<svg width="92" height="46" viewBox="0 0 92 46" fill="none" xmlns="http://www.w3.org/2000/svg">
<path d="M46.0007 2.38739C38.9321 2.38739 33.2051 8.11669 33.2051 15.1846C33.2051 20.6701 36.6581 25.3475 41.5081 27.1676L44.4544 19.3039C43.4914 18.9403 42.6863 18.2507 42.1792 17.3549C41.6721 16.4592 41.495 15.414 41.6788 14.4012C41.8626 13.3884 42.3956 12.472 43.1851 11.8116C43.9746 11.1511 44.9706 10.7883 46 10.7862C47.0296 10.788 48.026 11.1507 48.8158 11.8113C49.6056 12.4719 50.1388 13.3885 50.3225 14.4016C50.5062 15.4147 50.3289 16.4602 49.8214 17.3561C49.3138 18.2519 48.5083 18.9415 47.5448 19.3047L50.4942 27.1684C55.3441 25.3491 58.7972 20.6709 58.7972 15.1854C58.7972 8.11822 53.0679 2.38969 46 2.38969L46.0007 2.38739Z" fill="#40AA54" stroke="#20552A" stroke-width="1.032" stroke-linejoin="round"/>
<path d="M12.1448 36.2764C12.1448 37.2608 11.3414 38.0834 10.337 38.0834C9.31277 38.0834 8.52924 37.26 8.52924 36.2764V33.6651C8.52924 32.6815 9.3327 31.8573 10.337 31.8573C11.3414 31.8573 12.1448 32.6822 12.1448 33.6651V36.2733V36.2764ZM13.9526 36.2764V33.6651C13.9526 31.6365 12.5266 30.2504 10.337 30.2504C8.14744 30.2504 6.72144 31.615 6.72144 33.662V36.2725C6.72144 38.3211 8.14744 39.6873 10.337 39.6873C12.5266 39.6873 13.9526 38.3234 13.9526 36.2764ZM20.3788 36.074C20.3788 37.0584 19.5968 37.8818 18.5718 37.8818C17.5751 37.8818 16.764 37.0584 16.764 36.074V33.866C16.764 32.8816 17.5675 32.0566 18.5718 32.0566C19.5961 32.0566 20.3796 32.8808 20.3796 33.866L20.3788 36.074ZM22.1882 36.074V33.866C22.1882 31.8374 20.7415 30.4512 18.7129 30.4512C17.5276 30.4512 16.9649 31.1144 16.7042 31.1144C16.6237 31.1144 16.5631 31.0339 16.5631 30.8921V30.6506C16.5631 30.5103 16.5018 30.4489 16.3623 30.4489H15.1655C15.0252 30.4489 14.9646 30.5103 14.9646 30.6506V43.8066C14.9646 43.9469 15.026 44.0074 15.1655 44.0074H16.5716C16.7119 44.0074 16.7724 43.9461 16.7724 43.8058V39.0448C16.7724 38.9037 16.8338 38.824 16.9258 38.824C17.1059 38.824 17.7078 39.4872 18.8731 39.4872C20.7415 39.4872 22.1874 38.042 22.1874 36.0724L22.1882 36.074ZM28.1329 33.866H24.9206C24.7396 33.866 24.7197 33.7855 24.7197 33.5639C24.7197 32.6807 25.563 31.8565 26.529 31.8565C27.472 31.8565 28.3361 32.66 28.3361 33.5233C28.3353 33.7648 28.3154 33.866 28.1344 33.866H28.1329ZM30.1416 35.0696V33.6636C30.1416 31.8358 28.5354 30.2488 26.5267 30.2488C24.5181 30.2488 22.9119 31.8358 22.9119 33.6636V36.2748C22.9119 38.3234 24.3379 39.6896 26.5275 39.6896C27.5932 39.6896 28.4365 39.4082 29.0383 38.8462C29.6402 38.2843 29.8817 37.7614 29.8817 37.6196C29.8817 37.5598 29.841 37.5199 29.7605 37.4793L28.4955 36.8353C28.4557 36.8153 28.415 36.7954 28.3752 36.7954C28.2548 36.7954 28.0739 37.1174 27.6315 37.6387C27.4107 37.8994 27.009 38.0803 26.5275 38.0803C25.5032 38.0803 24.7197 37.2569 24.7197 36.2733V35.4729C24.7197 35.3326 24.7795 35.272 24.9206 35.272H29.9422C29.9697 35.278 29.9983 35.277 30.0253 35.2691C30.0523 35.2612 30.0768 35.2467 30.0968 35.2269C30.1168 35.2071 30.1315 35.1826 30.1395 35.1557C30.1476 35.1288 30.1489 35.1002 30.1431 35.0727L30.1416 35.0696ZM38.0359 39.4879H36.6306C36.603 39.494 36.5743 39.493 36.5471 39.4851C36.52 39.4771 36.4953 39.4625 36.4753 39.4424C36.4553 39.4224 36.4406 39.3977 36.4327 39.3706C36.4247 39.3434 36.4237 39.3147 36.4298 39.2871V33.8644C36.4298 32.8793 35.6462 32.0551 34.622 32.0551C33.6253 32.0551 32.8142 32.8785 32.8142 33.8644V39.2871C32.8202 39.3147 32.8192 39.3434 32.8113 39.3706C32.8033 39.3977 32.7887 39.4224 32.7687 39.4424C32.7487 39.4625 32.724 39.4771 32.6968 39.4851C32.6697 39.493 32.6409 39.494 32.6133 39.4879H31.2072C31.0662 39.4879 31.0064 39.4281 31.0064 39.2871V30.6506C31.0064 30.5095 31.0677 30.4489 31.2072 30.4489H32.4124C32.5527 30.4489 32.6133 30.5103 32.6133 30.6506V30.8913C32.6133 31.0316 32.6731 31.1121 32.7536 31.1121C33.0143 31.1121 33.577 30.4489 34.7623 30.4489C36.7909 30.4489 38.2368 31.8366 38.2368 33.8637V39.2863C38.2431 39.3139 38.2423 39.3426 38.2346 39.3698C38.2268 39.397 38.2124 39.4219 38.1925 39.442C38.1727 39.4622 38.148 39.477 38.121 39.4852C38.0939 39.4933 38.0652 39.4946 38.0375 39.4887L38.0359 39.4879ZM43.2585 32.7995C43.2585 33.6229 43.881 34.0047 45.2671 34.306C47.5771 34.8082 48.8628 35.1095 48.8628 36.7977C48.8628 38.5051 47.617 39.6896 45.6689 39.6896H45.0463C43.178 39.6896 41.9528 38.5649 41.9528 37.9416C41.9528 37.8818 41.9935 37.8419 42.0939 37.8013L42.8774 37.4202C42.9173 37.4003 42.9572 37.4003 42.9771 37.4003C43.0384 37.4003 43.0768 37.4402 43.1304 37.5C43.6518 38.0826 44.0543 38.6247 45.0379 38.6247H45.6604C46.7851 38.6247 47.5004 37.9822 47.5004 37.158C47.5004 36.4144 46.8779 35.9728 45.5316 35.6922C43.201 35.2092 41.936 34.9684 41.936 33.2005C41.936 31.5522 43.1611 30.4098 45.0295 30.4098H45.652C47.4797 30.4098 48.7248 31.5138 48.7248 32.1172C48.7248 32.1785 48.665 32.2169 48.5845 32.2575L47.8209 32.6385C47.781 32.6585 47.7611 32.6585 47.7404 32.6585C47.6791 32.6585 47.6407 32.6186 47.5871 32.5573C47.0251 31.9554 46.5636 31.474 45.6597 31.474H45.0371C43.8749 31.4709 43.2523 31.9746 43.2523 32.7965L43.2585 32.7995ZM55.3488 36.3952C55.3488 37.5605 54.4043 38.5449 53.1998 38.5449C51.9954 38.5449 51.0708 37.5605 51.0708 36.3952V33.6843C51.0708 32.499 51.9755 31.5552 53.1998 31.5552C54.4035 31.5552 55.3488 32.5396 55.3488 33.6843V36.3952ZM56.7135 36.3952V33.6843C56.7135 31.7354 55.3281 30.4106 53.1991 30.4106C51.07 30.4106 49.7238 31.6963 49.7238 33.6843V36.3952C49.7238 38.3839 51.0693 39.6896 53.1991 39.6896C55.3289 39.6896 56.715 38.3632 56.715 36.3944L56.7135 36.3952ZM64.5488 39.4879H63.8051C63.6648 39.4879 63.6043 39.4281 63.6043 39.2871V38.4246C63.6043 38.2843 63.5245 38.2038 63.4433 38.2038C63.2631 38.2038 63.0622 38.5258 62.6996 38.8861C62.2971 39.2671 61.7029 39.4879 61.0321 39.4879C59.2044 39.4879 57.7584 38.1424 57.7584 36.1936V30.8039C57.7584 30.6636 57.8198 30.603 57.9601 30.603H58.9031C58.9307 30.597 58.9594 30.598 58.9866 30.6059C59.0137 30.6139 59.0384 30.6285 59.0584 30.6485C59.0785 30.6685 59.0931 30.6933 59.1011 30.7204C59.109 30.7476 59.11 30.7763 59.1039 30.8039V36.1859C59.1039 37.3512 60.0485 38.3349 61.2337 38.3349C62.4788 38.3349 63.4034 37.3704 63.4034 36.1859V30.8039C63.3973 30.7763 63.3983 30.7476 63.4063 30.7204C63.4142 30.6933 63.4289 30.6685 63.4489 30.6485C63.4689 30.6285 63.4936 30.6139 63.5208 30.6059C63.5479 30.598 63.5766 30.597 63.6043 30.603H64.5488C64.5764 30.597 64.6052 30.598 64.6323 30.6059C64.6595 30.6139 64.6842 30.6285 64.7042 30.6485C64.7242 30.6685 64.7388 30.6933 64.7468 30.7204C64.7547 30.7476 64.7557 30.7763 64.7497 30.8039V39.2802C64.7559 39.3078 64.7552 39.3365 64.7474 39.3637C64.7397 39.3909 64.7252 39.4157 64.7054 39.4359C64.6855 39.4561 64.6609 39.4709 64.6338 39.4791C64.6067 39.4872 64.578 39.4884 64.5503 39.4826L64.5488 39.4879ZM70.8355 32.0359C70.6745 32.0359 70.4138 31.9761 70.0719 31.9761C68.8475 31.9761 67.9428 32.8992 67.9428 34.0845V39.2863C67.9489 39.3139 67.9479 39.3427 67.94 39.3698C67.932 39.397 67.9174 39.4217 67.8973 39.4417C67.8773 39.4617 67.8526 39.4763 67.8255 39.4843C67.7983 39.4922 67.7696 39.4932 67.742 39.4872H66.7775C66.7499 39.4932 66.7212 39.4922 66.694 39.4843C66.6669 39.4763 66.6421 39.4617 66.6221 39.4417C66.6021 39.4217 66.5875 39.397 66.5795 39.3698C66.5716 39.3427 66.5706 39.3139 66.5766 39.2863V30.8039C66.5706 30.7763 66.5716 30.7477 66.5795 30.7206C66.5875 30.6936 66.602 30.6689 66.6219 30.6489C66.6418 30.6289 66.6665 30.6143 66.6935 30.6063C66.7205 30.5982 66.7492 30.5971 66.7767 30.603H67.5204C67.548 30.597 67.5768 30.598 67.6039 30.6059C67.6311 30.6139 67.6558 30.6285 67.6758 30.6485C67.6958 30.6685 67.7104 30.6933 67.7184 30.7204C67.7263 30.7476 67.7273 30.7763 67.7213 30.8039V31.8006C67.7213 31.9416 67.8018 32.0214 67.8746 32.0214C68.0954 32.0214 68.4166 31.5192 69.1396 30.9365C69.4081 30.7359 69.729 30.6173 70.0634 30.5954H70.8071C70.8347 30.5893 70.8635 30.5903 70.8906 30.5983C70.9178 30.6062 70.9425 30.6209 70.9625 30.6409C70.9825 30.6609 70.9971 30.6856 71.0051 30.7127C71.013 30.7399 71.014 30.7686 71.008 30.7962V31.8213C71.0049 31.9853 70.9666 32.0237 70.8263 32.0237L70.8355 32.0359ZM77.563 37.9201C77.563 38.5626 76.3378 39.6873 74.4503 39.6873C72.3213 39.6873 70.975 38.3824 70.975 36.3929V33.682C70.975 31.6932 72.3213 30.4083 74.4503 30.4083C76.3187 30.4083 77.5837 31.474 77.5837 32.1364C77.5837 32.1962 77.5223 32.2567 77.4426 32.2897L76.5993 32.7114C76.5594 32.7313 76.5379 32.7313 76.5188 32.7313C76.459 32.7313 76.4191 32.7114 76.3578 32.6516C75.7552 32.0888 75.3611 31.546 74.4488 31.546C73.2236 31.546 72.3197 32.4906 72.3197 33.6751V36.386C72.3197 37.5513 73.2436 38.5357 74.4488 38.5357C74.9318 38.5357 75.4132 38.3349 75.7751 37.9929C76.1968 37.592 76.3769 37.3029 76.4973 37.3029C76.5172 37.3029 76.5586 37.3029 76.597 37.3229L77.4403 37.7445C77.5354 37.7859 77.5568 37.825 77.5568 37.8979L77.563 37.9201ZM83.9087 33.9641C83.9147 33.9917 83.9137 34.0205 83.9058 34.0476C83.8978 34.0748 83.8832 34.0995 83.8632 34.1195C83.8432 34.1395 83.8185 34.1541 83.7913 34.1621C83.7642 34.17 83.7354 34.171 83.7078 34.165H79.8315C79.6912 34.165 79.6307 34.1036 79.6307 33.9641V33.6835C79.6307 32.4982 80.5353 31.5545 81.7597 31.5545C82.9649 31.5545 83.9087 32.5389 83.9087 33.6835V33.9641ZM85.2764 34.9086V33.6835C85.2764 31.9562 83.7093 30.4098 81.7612 30.4098C80.737 30.4098 79.8929 30.7717 79.2312 31.4755C78.6286 32.118 78.2882 32.9414 78.2882 33.685V36.396C78.2882 38.3847 79.6337 39.6903 81.7628 39.6903C83.6511 39.6903 84.8754 38.5656 84.8754 37.9239C84.8754 37.8434 84.8555 37.8028 84.7551 37.7706L83.9117 37.3489C83.8719 37.329 83.832 37.329 83.8121 37.329C83.6909 37.329 83.5108 37.6104 83.0883 38.019C82.728 38.3617 82.245 38.5618 81.762 38.5618C80.5568 38.5618 79.633 37.5774 79.633 36.4121V35.3272C79.6269 35.2996 79.6279 35.2709 79.6359 35.2437C79.6438 35.2166 79.6585 35.1919 79.6785 35.1719C79.6985 35.1519 79.7232 35.1372 79.7503 35.1293C79.7775 35.1213 79.8062 35.1203 79.8338 35.1264H85.0763C85.2197 35.1202 85.2787 35.0612 85.2787 34.9209L85.2764 34.9086Z" fill="white"/>
</svg>
