<svg width="152" height="46" viewBox="0 0 152 46" fill="none" xmlns="http://www.w3.org/2000/svg">
<path d="M61.5006 23.6055H64.8736L60.7842 11.6303H56.998L52.917 23.6055H55.9862L56.7704 20.9747H60.742L61.5006 23.6055ZM58.6927 14.3274H58.8531L60.1603 18.7839H57.3604L58.6927 14.3274Z" fill="#333333"/>
<path d="M66.7358 23.6054H69.7127V10.9083H66.7358V23.6054Z" fill="#333333"/>
<path d="M72.875 12.2527V14.4934H71.4331V16.676H72.875V21.0744C72.875 22.8835 73.8448 23.6221 76.3154 23.6221C76.8805 23.6221 77.4285 23.5723 77.7401 23.5059V21.4146C77.521 21.4395 77.3354 21.4561 76.9901 21.4561C76.2143 21.4561 75.8519 21.1159 75.8519 20.4187V16.676H77.7401V14.4934H75.8519V12.2527H72.875Z" fill="#333333"/>
<path d="M83.8955 16.2361C84.8904 16.2361 85.5143 16.8751 85.5645 17.954H82.1584C82.2344 16.9083 82.9171 16.2361 83.8955 16.2361ZM85.6741 20.8834C85.4721 21.4229 84.8733 21.7382 84.005 21.7382C82.8668 21.7382 82.1664 20.9913 82.1413 19.788V19.6386H88.4569V18.8253C88.4569 15.8793 86.7707 14.1531 83.8783 14.1531C80.9694 14.1531 79.2073 16.0037 79.2073 19.0494C79.2073 22.0785 80.9272 23.8212 83.9206 23.8212C86.3489 23.8212 88.0693 22.6843 88.3981 20.8834H85.6741Z" fill="#333333"/>
<path d="M90.3123 23.6055H93.2885V18.7175C93.2885 17.4312 94.1659 16.7009 95.4811 16.7009C95.9366 16.7009 96.5348 16.7756 96.7626 16.8669V14.3689C96.5434 14.2776 96.0799 14.2278 95.6831 14.2278C94.5112 14.2278 93.6008 14.9581 93.373 15.8876H93.2126V14.3689H90.3123V23.6055Z" fill="#333333"/>
<path d="M98.3728 23.6054H101.349V18.3274C101.349 17.2652 101.931 16.5515 102.901 16.5515C103.913 16.5515 104.376 17.1739 104.376 18.2942V23.6054H107.361V17.6386C107.361 15.4228 106.274 14.1531 104.182 14.1531C102.825 14.1531 101.846 14.8253 101.434 15.871H101.273V14.3689H98.3728V23.6054Z" fill="#333333"/>
<path d="M113.248 21.6967C112.497 21.6967 111.999 21.3316 111.999 20.7423C111.999 20.1863 112.463 19.8461 113.349 19.7797L114.925 19.6801V20.2859C114.925 21.0826 114.192 21.6967 113.248 21.6967ZM112.16 23.7466C113.349 23.7466 114.377 23.2486 114.799 22.4602H114.959V23.6054H117.86V17.3067C117.86 15.315 116.384 14.1531 113.796 14.1531C111.258 14.1531 109.597 15.2652 109.461 17.0577H112.143C112.337 16.5681 112.843 16.3108 113.627 16.3108C114.453 16.3108 114.925 16.6842 114.925 17.3067V18.0287L112.877 18.1448C110.456 18.2859 109.124 19.2652 109.124 20.9498C109.124 22.6428 110.355 23.7466 112.16 23.7466Z" fill="#333333"/>
<path d="M120.87 12.2527V14.4934H119.428V16.676H120.87V21.0744C120.87 22.8835 121.84 23.6221 124.31 23.6221C124.875 23.6221 125.423 23.5723 125.735 23.5059V21.4146C125.516 21.4395 125.33 21.4561 124.985 21.4561C124.209 21.4561 123.847 21.1159 123.847 20.4187V16.676H125.735V14.4934H123.847V12.2527H120.87Z" fill="#333333"/>
<path d="M127.7 23.6055H130.685V14.3689H127.7V23.6055ZM129.193 13.1324C130.061 13.1324 130.778 12.4602 130.778 11.6054C130.778 10.7506 130.061 10.0701 129.193 10.0701C128.324 10.0701 127.607 10.7506 127.607 11.6054C127.607 12.4602 128.324 13.1324 129.193 13.1324Z" fill="#333333"/>
<path d="M141.95 14.3689H138.813L137.219 20.9747H137.059L135.432 14.3689H132.219L135.381 23.6055H138.821L141.95 14.3689Z" fill="#333333"/>
<path d="M147.289 16.2361C148.283 16.2361 148.907 16.8751 148.958 17.954H145.551C145.627 16.9083 146.31 16.2361 147.289 16.2361ZM149.068 20.8834C148.865 21.4229 148.266 21.7382 147.398 21.7382C146.26 21.7382 145.56 20.9913 145.534 19.788V19.6386H151.85V18.8253C151.85 15.8793 150.164 14.1531 147.271 14.1531C144.362 14.1531 142.6 16.0037 142.6 19.0494C142.6 22.0785 144.32 23.8212 147.314 23.8212C149.742 23.8212 151.462 22.6843 151.791 20.8834H149.068Z" fill="#333333"/>
<path d="M91.0695 35.0813C92.4269 35.0813 93.4264 34.2929 93.5948 33.1104H92.6546C92.4863 33.7867 91.8749 34.2141 91.0695 34.2141C89.9735 34.2141 89.2902 33.3386 89.2902 31.9444C89.2902 30.546 89.9735 29.6705 91.0655 29.6705C91.8663 29.6705 92.4777 30.1435 92.6546 30.878H93.5948C93.443 29.6581 92.4063 28.8033 91.0655 28.8033C89.3747 28.8033 88.325 30.0025 88.325 31.9444C88.325 33.8821 89.3793 35.0813 91.0695 35.0813Z" fill="#333333"/>
<path d="M99.4168 28.8033C97.6718 28.8033 96.5752 30.0066 96.5752 31.9402C96.5752 33.8697 97.6461 35.0813 99.4168 35.0813C101.175 35.0813 102.254 33.8656 102.254 31.9402C102.254 30.0108 101.167 28.8033 99.4168 28.8033ZM99.4168 29.6705C100.568 29.6705 101.289 30.5502 101.289 31.9402C101.289 33.322 100.572 34.2141 99.4168 34.2141C98.2449 34.2141 97.541 33.322 97.541 31.9402C97.541 30.5502 98.266 29.6705 99.4168 29.6705Z" fill="#333333"/>
<path d="M111.678 34.9361V28.9485H110.573L108.634 33.5295H108.562L106.627 28.9485H105.522V34.9361H106.4V30.6125H106.458L108.242 34.795H108.959L110.742 30.6125H110.801V34.9361H111.678Z" fill="#333333"/>
<path d="M121.346 34.9361V28.9485H120.241L118.302 33.5295H118.23L116.295 28.9485H115.19V34.9361H116.068V30.6125H116.126L117.91 34.795H118.627L120.41 30.6125H120.469V34.9361H121.346Z" fill="#333333"/>
<path d="M128.721 34.0896H125.803V32.293H128.564V31.488H125.803V29.795H128.721V28.9485H124.858V34.9361H128.721V34.0896Z" fill="#333333"/>
<path d="M133.015 29.766H134.348C135.077 29.766 135.524 30.1602 135.524 30.8116C135.524 31.4797 135.102 31.8614 134.373 31.8614H133.015V29.766ZM133.015 32.6539H134.348L135.587 34.9361H136.679L135.313 32.5005C136.055 32.2515 136.493 31.5958 136.493 30.7909C136.493 29.6664 135.705 28.9485 134.478 28.9485H132.071V34.9361H133.015V32.6539Z" fill="#333333"/>
<path d="M142.32 35.0813C143.678 35.0813 144.677 34.2929 144.846 33.1104H143.906C143.737 33.7867 143.126 34.2141 142.32 34.2141C141.224 34.2141 140.541 33.3386 140.541 31.9444C140.541 30.546 141.224 29.6705 142.316 29.6705C143.117 29.6705 143.729 30.1435 143.906 30.878H144.846C144.694 29.6581 143.657 28.8033 142.316 28.8033C140.626 28.8033 139.576 30.0025 139.576 31.9444C139.576 33.8821 140.63 35.0813 142.32 35.0813Z" fill="#333333"/>
<path d="M151.937 34.0896H149.02V32.293H151.781V31.488H149.02V29.795H151.937V28.9485H148.075V34.9361H151.937V34.0896Z" fill="#333333"/>
<path d="M12.298 20.1887L0 31.1745L4.98552 32.7686L12.298 20.1887Z" fill="#333333"/>
<path d="M28.7441 40.3654L43.0653 44.9446L42.0954 40.3654H28.7441Z" fill="#333333"/>
<path d="M37.0966 16.7698L33.7597 1.01636L29.9287 4.43863L37.0966 16.7698Z" fill="#333333"/>
<path fill-rule="evenodd" clip-rule="evenodd" d="M25.6905 0L3.05005 38.949H48.331L25.6905 0ZM25.6905 14.2609L15.4561 31.8674H35.9249L25.6905 14.2609Z" fill="#019AD2"/>
</svg>
