<svg width="105" height="65" viewBox="0 0 105 65" fill="none" xmlns="http://www.w3.org/2000/svg">
<rect width="105" height="32.5001" fill="url(#paint0_linear_7477_503)"/>
<rect x="0.659864" y="33.1597" width="103.68" height="31.1804" fill="white" stroke="url(#paint1_linear_7477_503)" stroke-width="1.31973"/>
<path d="M19.0039 10.4998L15.562 17.0798L12.2276 10.4998H9.12622L14.074 19.4948L13.9665 19.6348C13.4824 20.3698 12.9267 20.6848 12.2096 20.6848C11.8332 20.6848 11.4209 20.5973 10.9548 20.4573L10.2556 22.6098C10.9548 22.8898 11.636 23.0298 12.2993 23.0298C13.9844 23.0298 15.4723 22.0848 16.5121 20.1948L21.8543 10.4998H19.0039Z" fill="white"/>
<path d="M31.3552 22.7498H34.6537L30.423 16.4148L34.5282 10.4998H31.4628L28.1642 15.4523H26.0847V10.4998H23.1985V22.7498H26.0847V17.8148H28.0925L31.3552 22.7498Z" fill="white"/>
<path d="M41.446 10.4998H36.0142V22.7498H38.9184V19.3723H41.446C44.7984 19.3723 46.8958 17.6748 46.8958 14.9448C46.8958 12.1973 44.7984 10.4998 41.446 10.4998ZM41.2847 17.0623H38.9184V12.8098H41.2847C43.0595 12.8098 43.9558 13.5973 43.9558 14.9448C43.9558 16.2748 43.0595 17.0623 41.2847 17.0623Z" fill="white"/>
<path d="M57.7901 22.7498H60.8377L55.2266 10.4998H52.3583L46.7651 22.7498H49.741L50.8524 20.1248H56.6787L57.7901 22.7498ZM51.7846 17.9723L53.7745 13.2823L55.7644 17.9723H51.7846Z" fill="white"/>
<path d="M62.0716 9.41476C62.7707 9.41476 63.3085 8.92476 63.3085 8.20726C63.3085 7.48976 62.7707 6.99976 62.0716 6.99976C61.3724 6.99976 60.8167 7.48976 60.8167 8.20726C60.8167 8.92476 61.3724 9.41476 62.0716 9.41476ZM65.6928 9.41476C66.3919 9.41476 66.9477 8.92476 66.9477 8.20726C66.9477 7.48976 66.3919 6.99976 65.6928 6.99976C65.0116 6.99976 64.4558 7.48976 64.4558 8.20726C64.4558 8.92476 65.0116 9.41476 65.6928 9.41476ZM62.4301 22.7498H65.3342V10.4998H62.4301V22.7498Z" fill="white"/>
<path d="M76.9889 10.4998V15.3298H71.2882V10.4998H68.384V22.7498H71.2882V17.7273H76.9889V22.7498H79.8931V10.4998H76.9889Z" fill="white"/>
<path d="M92.6459 22.7498H95.6935L90.0824 10.4998H87.2141L81.6209 22.7498H84.5967L85.7082 20.1248H91.5344L92.6459 22.7498ZM86.6404 17.9723L88.6303 13.2823L90.6202 17.9723H86.6404Z" fill="white"/>
<path d="M20.4044 43.0009H11.5486V55.2509H14.4348L14.4169 45.3109H20.3865L20.4044 43.0009Z" fill="url(#paint2_linear_7477_503)"/>
<path d="M27.607 43.0009H22.1751V55.2509H25.0793V51.8734H27.607C30.9593 51.8734 33.0567 50.1759 33.0567 47.4459C33.0567 44.6984 30.9593 43.0009 27.607 43.0009ZM27.4456 49.5634H25.0793V45.3109H27.4456C29.2204 45.3109 30.1167 46.0984 30.1167 47.4459C30.1167 48.7759 29.2204 49.5634 27.4456 49.5634Z" fill="url(#paint3_linear_7477_503)"/>
<path d="M41.1351 55.4609C45.079 55.4609 48.0011 52.7834 48.0011 49.1259C48.0011 45.4684 45.079 42.7909 41.1351 42.7909C37.1733 42.7909 34.2692 45.4859 34.2692 49.1259C34.2692 52.7659 37.1733 55.4609 41.1351 55.4609ZM41.1351 53.0459C38.8943 53.0459 37.2092 51.4534 37.2092 49.1259C37.2092 46.7984 38.8943 45.2059 41.1351 45.2059C43.376 45.2059 45.0611 46.7984 45.0611 49.1259C45.0611 51.4534 43.376 53.0459 41.1351 53.0459Z" fill="url(#paint4_linear_7477_503)"/>
<path d="M64.3826 55.2509L64.3647 43.0009H61.9625L57.3373 50.6134L52.6405 43.0009H50.2383V55.2509H52.9632V48.0584L56.6561 53.9559H57.9469L61.6398 47.9184L61.6577 55.2509H64.3826Z" fill="url(#paint5_linear_7477_503)"/>
<path d="M77.1087 55.2509H80.1562L74.5451 43.0009H71.6768L66.0837 55.2509H69.0595L70.171 52.6259H75.9972L77.1087 55.2509ZM71.1032 50.4734L73.0931 45.7834L75.0829 50.4734H71.1032Z" fill="url(#paint6_linear_7477_503)"/>
<path d="M93.1117 52.9409V43.0009H83.4671L83.3237 46.8334C83.1982 50.2634 82.7859 52.8884 81.1545 52.9409H80.6526L80.6347 57.7884H83.3237V55.2509H92.1795V57.7884H94.8686V52.9409H93.1117ZM85.8872 47.0959L85.941 45.3109H90.2434V52.9409H84.6323C85.4928 51.9434 85.7797 49.7034 85.8872 47.0959Z" fill="url(#paint7_linear_7477_503)"/>
<defs>
<linearGradient id="paint0_linear_7477_503" x1="52.5" y1="0" x2="52.5" y2="32.5001" gradientUnits="userSpaceOnUse">
<stop stop-color="#79B1FE"/>
<stop offset="1" stop-color="#4F93EB"/>
</linearGradient>
<linearGradient id="paint1_linear_7477_503" x1="52.5" y1="32.4999" x2="52.5" y2="65" gradientUnits="userSpaceOnUse">
<stop stop-color="#79B1FE"/>
<stop offset="1" stop-color="#4F93EB"/>
</linearGradient>
<linearGradient id="paint2_linear_7477_503" x1="53.2086" y1="42.7909" x2="53.2086" y2="57.7884" gradientUnits="userSpaceOnUse">
<stop stop-color="#79B1FE"/>
<stop offset="1" stop-color="#4F93EB"/>
</linearGradient>
<linearGradient id="paint3_linear_7477_503" x1="53.2086" y1="42.7909" x2="53.2086" y2="57.7884" gradientUnits="userSpaceOnUse">
<stop stop-color="#79B1FE"/>
<stop offset="1" stop-color="#4F93EB"/>
</linearGradient>
<linearGradient id="paint4_linear_7477_503" x1="53.2086" y1="42.7909" x2="53.2086" y2="57.7884" gradientUnits="userSpaceOnUse">
<stop stop-color="#79B1FE"/>
<stop offset="1" stop-color="#4F93EB"/>
</linearGradient>
<linearGradient id="paint5_linear_7477_503" x1="53.2086" y1="42.7909" x2="53.2086" y2="57.7884" gradientUnits="userSpaceOnUse">
<stop stop-color="#79B1FE"/>
<stop offset="1" stop-color="#4F93EB"/>
</linearGradient>
<linearGradient id="paint6_linear_7477_503" x1="53.2086" y1="42.7909" x2="53.2086" y2="57.7884" gradientUnits="userSpaceOnUse">
<stop stop-color="#79B1FE"/>
<stop offset="1" stop-color="#4F93EB"/>
</linearGradient>
<linearGradient id="paint7_linear_7477_503" x1="53.2086" y1="42.7909" x2="53.2086" y2="57.7884" gradientUnits="userSpaceOnUse">
<stop stop-color="#79B1FE"/>
<stop offset="1" stop-color="#4F93EB"/>
</linearGradient>
</defs>
</svg>
